<svg xmlns="http://www.w3.org/2000/svg" xmlns:xlink="http://www.w3.org/1999/xlink" width="50" zoomAndPan="magnify" viewBox="0 0 37.5 37.499999" height="50" preserveAspectRatio="xMidYMid meet" version="1.2"><defs><clipPath id="220810af9e"><path d="M 0 0 L 37.007812 0 L 37.007812 37.007812 L 0 37.007812 Z M 0 0 "/></clipPath></defs><g id="1da22df905"><g clip-rule="nonzero" clip-path="url(#220810af9e)"><path style=" stroke:none;fill-rule:nonzero;fill:#ffffff;fill-opacity:1;" d="M 0 0 L 37.007812 0 L 37.007812 37.007812 L 0 37.007812 Z M 0 0 "/><path style=" stroke:none;fill-rule:nonzero;fill:#111827;fill-opacity:1;" d="M 0 0 L 37.007812 0 L 37.007812 37.007812 L 0 37.007812 Z M 0 0 "/></g><g style="fill:#ffffff;fill-opacity:1;"><g transform="translate(6.827713, 30.715458)"><path style="stroke:none" d="M 22.984375 0 L 18 0 L 16.203125 -5.515625 L 7.03125 -5.515625 L 5.21875 0 L 0.359375 0 L 8.625 -23.953125 L 14.703125 -23.953125 Z M 11.390625 -18.953125 L 8.3125 -9.5 L 14.890625 -9.5 L 11.796875 -18.953125 Z M 11.390625 -18.953125 "/></g></g></g></svg>